<?xml version="1.0" standalone="no"?>
<!DOCTYPE svg PUBLIC "-//W3C//DTD SVG 20010904//EN"
 "http://www.w3.org/TR/2001/REC-SVG-20010904/DTD/svg10.dtd">
<svg version="1.0" xmlns="http://www.w3.org/2000/svg"
 width="1100.000000pt" height="1100.000000pt" viewBox="0 0 1100.000000 1100.000000"
 preserveAspectRatio="xMidYMid meet">
<metadata>
Julius C. Cesar, mail@jccesar.com
</metadata>
<g transform="translate(0.000000,1100.000000) scale(0.100000,-0.100000)"
fill="#ffffff" stroke="none">
<path d="M556 10492 c-3 -5 -15 -71 -27 -148 -27 -176 -37 -573 -20 -762 48
-512 215 -989 498 -1422 42 -63 89 -132 106 -154 l31 -39 -18 -31 c-10 -17
-56 -105 -101 -196 -288 -571 -459 -1184 -515 -1845 -13 -155 -13 -635 0 -790
115 -1363 748 -2586 1785 -3450 760 -633 1639 -1007 2655 -1131 181 -22 714
-30 920 -15 1263 96 2404 640 3277 1563 781 827 1253 1894 1343 3042 13 166
13 626 0 781 -56 662 -227 1274 -514 1845 -46 91 -91 179 -101 195 l-18 30 60
83 c297 415 483 878 560 1397 14 96 18 184 18 435 -1 278 -3 332 -23 459 -13
80 -25 148 -28 153 -3 4 -134 8 -292 8 l-287 -1 -55 -71 c-78 -102 -325 -353
-442 -451 -212 -175 -454 -327 -701 -440 l-128 -58 -87 64 c-752 550 -1627
872 -2574 948 -200 16 -746 7 -933 -16 -875 -104 -1663 -406 -2361 -907 l-123
-88 -103 45 c-214 94 -472 250 -670 406 -121 95 -419 392 -498 496 l-55 72
-287 1 c-158 0 -289 -4 -292 -8z m9757 -189 c4 -21 8 -45 10 -53 2 -8 7 -37
11 -65 4 -27 11 -77 16 -110 31 -204 14 -590 -35 -825 -85 -402 -220 -720
-449 -1058 -113 -166 -126 -189 -126 -228 0 -19 26 -80 65 -155 328 -622 505
-1230 565 -1934 13 -155 13 -576 0 -741 -89 -1127 -536 -2148 -1298 -2964
-846 -905 -1964 -1442 -3206 -1540 -166 -13 -566 -13 -732 0 -685 54 -1376
253 -1924 555 -142 78 -139 77 -190 109 -391 246 -669 500 -978 897 -111 143
-294 429 -274 429 11 0 137 -84 168 -111 11 -11 23 -19 26 -19 8 0 10 2 118
120 47 51 106 116 133 144 31 34 45 56 40 66 -4 8 -9 40 -11 70 l-4 54 99 -95
c120 -115 335 -300 458 -394 127 -96 128 -97 50 -19 -101 99 -333 381 -420
511 -41 61 -75 114 -75 117 0 11 73 -5 97 -20 21 -13 25 -11 62 28 21 24 56
62 78 84 80 87 168 186 171 194 2 5 -10 35 -26 67 -29 58 -67 172 -59 179 2 2
44 -38 93 -89 119 -122 237 -228 419 -373 167 -133 156 -125 315 -230 179
-117 290 -180 490 -276 395 -191 702 -287 1105 -345 172 -24 629 -24 810 1
593 81 1151 316 1605 676 124 98 428 399 524 520 96 121 243 342 251 379 9 41
-9 92 -43 123 -52 49 -802 490 -841 495 -68 9 -101 -14 -180 -129 -411 -604
-1075 -942 -1795 -915 -291 12 -495 62 -741 182 -212 104 -330 189 -495 358
-56 57 -117 125 -136 153 -85 121 -130 196 -177 289 -72 141 -136 204 -232
228 -15 3 -12 5 10 7 17 1 39 3 50 5 34 7 111 -15 156 -44 l44 -27 40 43 c22
23 72 77 110 119 39 42 87 94 107 117 31 33 35 43 27 59 -6 11 -13 32 -15 46
-3 15 -7 35 -10 46 -6 18 -5 18 26 0 55 -32 146 -121 233 -227 157 -190 323
-316 532 -402 350 -145 706 -146 1033 -3 209 91 400 254 542 462 84 123 149
198 231 266 l57 47 -137 6 c-331 15 -633 137 -894 360 -69 59 -205 220 -250
295 -17 28 -34 52 -37 52 -4 0 -27 -29 -53 -64 -65 -89 -217 -230 -320 -299
-167 -111 -379 -191 -584 -222 -166 -24 -171 -21 -60 35 55 27 115 55 135 63
41 17 64 37 169 153 39 43 84 93 100 110 15 17 52 57 82 90 30 32 84 91 120
130 36 39 109 117 161 174 124 135 211 229 283 303 31 32 57 62 57 66 0 4 17
24 38 43 20 20 62 62 92 95 l56 59 13 117 c7 65 19 139 28 165 22 68 75 203
79 200 1 -2 -4 -37 -12 -78 -32 -167 -6 -370 67 -529 25 -54 106 -175 145
-217 396 -423 1082 -340 1324 161 57 117 76 187 85 310 8 100 -11 228 -45 316
-11 27 -20 54 -20 59 0 10 218 96 342 134 264 82 407 321 347 581 -27 119
-155 282 -255 326 -85 37 -167 59 -224 59 -171 0 -694 -156 -941 -281 -32 -16
-59 -27 -59 -25 0 3 51 39 113 80 114 76 371 213 486 260 72 29 96 52 341 325
41 46 100 111 130 143 59 64 68 78 51 78 -5 0 -22 11 -37 25 -15 14 -23 25
-18 25 5 0 2 5 -6 10 -10 7 16 10 89 8 l103 -3 -56 51 -57 51 59 -2 c33 -2 65
-6 71 -10 7 -4 29 12 52 37 88 93 209 224 233 252 l26 29 -48 51 c-61 65 -106
125 -99 132 6 6 159 -69 272 -135 77 -44 83 -46 160 -46 79 0 82 1 216 68 303
151 573 333 789 529 112 102 327 319 401 405 l44 51 150 10 c83 5 160 10 171
10 17 2 22 -5 27 -35z m-6789 -2358 c260 -79 584 -223 766 -340 298 -191 493
-424 555 -664 93 -360 -102 -702 -451 -791 -205 -53 -424 10 -580 165 -218
217 -243 556 -58 803 23 31 41 60 38 63 -14 23 -360 155 -524 200 -168 47
-259 152 -260 300 0 87 22 148 76 208 50 56 111 89 181 100 62 9 112 0 257
-44z m4271 28 c70 -22 155 -109 179 -181 46 -139 -3 -285 -122 -361 -26 -16
-81 -38 -122 -50 -157 -43 -394 -132 -503 -187 l-27 -15 39 -52 c115 -152 156
-346 111 -521 -58 -227 -229 -398 -456 -456 -205 -53 -424 10 -580 165 -194
194 -236 486 -109 761 91 199 288 399 545 554 182 110 485 242 725 315 193 59
215 61 320 28z m-4110 -3703 c191 -291 505 -566 830 -728 301 -150 576 -219
912 -229 393 -12 739 64 1078 238 312 160 621 433 810 718 33 50 63 91 67 91
8 0 758 -449 776 -464 9 -9 -6 -38 -72 -136 -125 -185 -202 -277 -380 -456
-261 -261 -498 -434 -816 -593 -325 -163 -630 -256 -1005 -307 -195 -27 -609
-25 -802 4 -588 88 -1094 307 -1543 669 -137 110 -367 340 -473 473 -101 126
-238 333 -228 343 14 14 765 465 776 466 6 1 37 -40 70 -89z"/>
<path d="M9135 8699 c-44 -21 -133 -59 -198 -83 -104 -39 -151 -51 -305 -72
l-33 -5 59 -63 c80 -86 169 -223 209 -320 17 -44 34 -74 36 -66 3 8 12 49 21
90 9 41 32 112 51 158 32 79 61 127 189 310 32 46 57 85 55 86 -2 2 -40 -14
-84 -35z"/>
<path d="M8955 7532 c-23 -208 -113 -434 -243 -608 -78 -103 -220 -239 -311
-295 -61 -38 -70 -48 -71 -74 0 -44 -44 -230 -75 -320 -44 -129 -147 -323
-228 -431 -129 -172 -321 -343 -485 -431 -75 -41 -81 -53 -27 -53 51 0 195
-40 274 -76 40 -19 267 -150 503 -291 381 -229 440 -267 518 -341 49 -45 111
-113 138 -150 131 -177 202 -411 189 -625 l-5 -92 21 40 c11 22 53 123 93 223
136 339 216 659 261 1037 25 214 25 712 -1 915 -65 528 -197 952 -446 1437
l-99 191 -6 -56z"/>
</g>
</svg>
